<svg xmlns="http://www.w3.org/2000/svg" viewBox="0 0 240 88" width="240" height="88">
  <!-- Sunburst icon -->
  <g transform="translate(40,44)">
    <!-- Rays -->
    <line x1="0" y1="-30" x2="0" y2="-20" stroke="#FFFFFF" stroke-width="3.5" stroke-linecap="round"/>
    <line x1="0" y1="30" x2="0" y2="20" stroke="#FFFFFF" stroke-width="3.5" stroke-linecap="round"/>
    <line x1="-30" y1="0" x2="-20" y2="0" stroke="#FFFFFF" stroke-width="3.5" stroke-linecap="round"/>
    <line x1="30" y1="0" x2="20" y2="0" stroke="#FFFFFF" stroke-width="3.5" stroke-linecap="round"/>
    <line x1="-21.2" y1="-21.2" x2="-14.1" y2="-14.1" stroke="#FFFFFF" stroke-width="3.5" stroke-linecap="round"/>
    <line x1="21.2" y1="21.2" x2="14.1" y2="14.1" stroke="#FFFFFF" stroke-width="3.5" stroke-linecap="round"/>
    <line x1="21.2" y1="-21.2" x2="14.1" y2="-14.1" stroke="#FFFFFF" stroke-width="3.5" stroke-linecap="round"/>
    <line x1="-21.2" y1="21.2" x2="-14.1" y2="14.1" stroke="#FFFFFF" stroke-width="3.5" stroke-linecap="round"/>
    <!-- Outer ring -->
    <circle cx="0" cy="0" r="16" fill="#FFFFFF"/>
    <!-- Inner solar panel (green) -->
    <circle cx="0" cy="0" r="11.5" fill="#00A651"/>
    <!-- Grid lines -->
    <line x1="-11.5" y1="0" x2="11.5" y2="0" stroke="#FFFFFF" stroke-width="1.4"/>
    <line x1="0" y1="-11.5" x2="0" y2="11.5" stroke="#FFFFFF" stroke-width="1.4"/>
    <line x1="-8" y1="-5.5" x2="8" y2="-5.5" stroke="#FFFFFF" stroke-width="0.9"/>
    <line x1="-8" y1="5.5" x2="8" y2="5.5" stroke="#FFFFFF" stroke-width="0.9"/>
    <line x1="-5.5" y1="-11.5" x2="-5.5" y2="11.5" stroke="#FFFFFF" stroke-width="0.9"/>
    <line x1="5.5" y1="-11.5" x2="5.5" y2="11.5" stroke="#FFFFFF" stroke-width="0.9"/>
  </g>
  <!-- SpolarPV text -->
  <text x="82" y="38" font-family="Arial Black, Arial, sans-serif" font-weight="900" font-size="26" fill="#FFFFFF" letter-spacing="0.5">SpolarPV</text>
  <!-- Tagline -->
  <text x="83" y="58" font-family="Arial, sans-serif" font-weight="400" font-size="12.5" fill="#00A651" letter-spacing="0.4">Easy Invest, More Returns</text>
</svg>
